<svg height="511pt" viewBox="-17 0 511 511.85104" width="511pt" xmlns="http://www.w3.org/2000/svg"><path d="m469.757812 298.519531c0 113.066407-103.167968 204.796875-230.398437 204.796875-4.265625 0-8.449219-.085937-12.628906-.339844-16.675781-.730468-33.230469-3.164062-49.410157-7.253906l-52.480468-19.539062c-69.289063-35.246094-115.882813-101.632813-115.882813-177.664063.003907-21.394531 3.761719-42.625 11.09375-62.722656 3.539063-9.609375 5.75-19.65625 6.570313-29.867187 7.863281-106.511719 93.324218-190.769532 199.9375-197.117188 4.265625-.34375 8.535156-.429688 12.800781-.429688 111.660156.003907 204.429687 86.109376 212.734375 197.460938.816406 10.183594 3.027344 20.203125 6.570312 29.785156 7.332032 20.15625 11.085938 41.4375 11.09375 62.890625zm0 0" fill="#f57c00"/><path d="m444.160156 298.519531c0 109.226563-96.257812 198.484375-217.429687 204.457031-16.675781-.730468-33.230469-3.164062-49.410157-7.253906l-52.480468-19.539062c-69.289063-35.246094-115.882813-101.632813-115.882813-177.664063.003907-21.394531 3.761719-42.625 11.09375-62.722656 3.539063-9.609375 5.75-19.65625 6.570313-29.867187 7.863281-106.511719 93.324218-190.769532 199.9375-197.117188 106.585937 6.339844 192.039062 90.554688 199.9375 197.03125.8125 10.183594 3.023437 20.203125 6.570312 29.785156 7.328125 20.15625 11.082032 41.4375 11.09375 62.890625zm0 0" fill="#ff9801"/><path d="m239.359375 443.585938c135.679687 0 134.261719-80.042969 123.734375-122.984376-1.324219-5.40625-5.117188-9.875-10.238281-12.058593-5.121094-2.183594-10.972657-1.824219-15.789063.964843-15.789062 9.4375-45.089844 19.730469-97.707031 19.730469s-81.921875-10.316406-97.707031-19.78125c-4.835938-2.773437-10.691406-3.113281-15.8125-.910156s-8.90625 6.6875-10.214844 12.105469c-7.046875 28.765625-9.992188 74.113281 29.636719 100.855468zm0 0" fill="#4e342e"/><path d="m392.957031 179.050781c0 37.703125-30.5625 68.265625-68.265625 68.265625-4.292968-.003906-8.578125-.402344-12.800781-1.195312-32.222656-6.105469-55.550781-34.269532-55.550781-67.070313s23.328125-60.960937 55.550781-67.070312c4.222656-.792969 8.507813-1.191407 12.800781-1.195313 37.703125 0 68.265625 30.5625 68.265625 68.265625zm0 0" fill="#cfd8dc"/><path d="m367.359375 179.050781c0-37.042969-24.832031-67.070312-55.46875-67.070312-30.632813 0-55.464844 30.027343-55.464844 67.070312s24.832031 67.070313 55.464844 67.070313c30.636719 0 55.46875-30.027344 55.46875-67.070313zm0 0" fill="#fff"/><path d="m222.292969 179.050781c0 37.703125-30.566407 68.265625-68.265625 68.265625-37.703125 0-68.269532-30.5625-68.269532-68.265625s30.566407-68.265625 68.269532-68.265625c37.699218 0 68.265625 30.5625 68.265625 68.265625zm0 0" fill="#fff"/><path d="m239.359375 443.585938c-1.707031 0-12.203125-.085938-13.824219-.171876-16.847656-.148437-31.703125 11.003907-36.265625 27.222657-.734375 2.28125-1.277343 4.621093-1.621093 6.996093-2.761719 14.992188-15.902344 25.828126-31.148438 25.683594-1.539062-.03125-3.078125-.144531-4.609375-.339844-14.03125-1.796874-25.121094-12.777343-27.050781-26.792968-.433594-3.480469-.230469-7.007813.597656-10.414063 3.320312-15.003906 9.554688-29.210937 18.347656-41.8125 9.035156-14.074219 24.496094-22.714843 41.214844-23.039062 10.640625.121093 20.949219 3.71875 29.355469 10.238281 10.949219 8.515625 19.554687 19.675781 25.003906 32.429688zm0 0" fill="#c52828"/><path d="m217.597656 417.984375c-1.707031 0-12.203125-.085937-13.824218-.171875-16.84375-.148438-31.703126 11.003906-36.265626 27.222656-.730468 2.285156-1.273437 4.625-1.621093 6.996094-2.761719 14.992188-15.902344 25.832031-31.148438 25.6875-1.539062-.03125-3.078125-.148438-4.605469-.34375-1.792968-.265625-3.558593-.664062-5.292968-1.191406-.433594-3.480469-.230469-7.007813.597656-10.414063 3.320312-15.003906 9.554688-29.210937 18.347656-41.8125 9.035156-14.074219 24.496094-22.714843 41.214844-23.039062 10.640625.121093 20.949219 3.71875 29.355469 10.238281 1.269531 2.183594 2.355469 4.464844 3.242187 6.828125zm0 0" fill="#f44335"/><path d="m366.589844 340.074219c-14.78125 13.710937-33.058594 23.070312-52.820313 27.050781-24.359375 5.859375-49.359375 8.613281-74.410156 8.191406-81.835937 0-115.371094-22.78125-127.234375-35.242187.738281-6.554688 1.90625-13.054688 3.5-19.457031.222656-.910157.539062-1.796876.9375-2.644532 1.945312-4.683594 5.820312-8.300781 10.628906-9.917968 4.804688-1.621094 10.078125-1.082032 14.460938 1.472656 15.785156 9.386718 45.054687 19.710937 97.707031 19.710937 21.730469.34375 43.417969-1.949219 64.597656-6.828125 6.894531-1.652344 13.652344-3.820312 20.222657-6.484375 4.433593-1.839843 8.738281-3.980469 12.886718-6.398437 4.8125-2.808594 10.671875-3.175782 15.796875-.988282 5.125 2.183594 8.917969 6.664063 10.230469 12.078126 1.589844 6.402343 2.761719 12.902343 3.496094 19.457031zm0 0" fill="#cfd8dc"/><path d="m341.757812 348.609375c-8.027343 7.941406-17.539062 14.234375-27.988281 18.515625-24.359375 5.859375-49.359375 8.613281-74.410156 8.191406-81.835937 0-115.371094-22.78125-127.234375-35.242187.738281-6.554688 1.90625-13.054688 3.5-19.457031.222656-.910157.539062-1.796876.9375-2.644532.085938 0 11.777344-11.007812 11.863281-10.921875 15.785157 9.386719 33.449219 17.066407 86.101563 17.066407 44.542968 0 72.363281 6.230468 89.429687-1.707032 2.832031-1.308594 5.59375-2.761718 8.277344-4.351562 3.570313-2.1875 7.835937-2.949219 11.945313-2.132813 6.894531 1.242188 12.410156 6.421875 14.082031 13.226563 1.589843 6.402344 2.761719 12.902344 3.496093 19.457031zm0 0" fill="#fff"/><path d="m324.691406 102.25c-42.414062 0-76.800781 34.386719-76.800781 76.800781 0 42.414063 34.386719 76.800781 76.800781 76.800781 42.417969 0 76.800782-34.386718 76.800782-76.800781-.046876-42.394531-34.402344-76.753906-76.800782-76.800781zm0 136.535156c-32.988281 0-59.734375-26.746094-59.734375-59.734375s26.746094-59.734375 59.734375-59.734375c32.992188 0 59.734375 26.746094 59.734375 59.734375-.042969 32.972657-26.761719 59.691407-59.734375 59.734375zm0 0"/><path d="m341.757812 170.519531c-14.136718 0-25.597656 11.460938-25.597656 25.597657 0 14.140624 11.460938 25.601562 25.597656 25.601562 14.140626 0 25.601563-11.460938 25.601563-25.601562 0-14.136719-11.460937-25.597657-25.601563-25.597657zm0 34.132813c-4.710937 0-8.53125-3.820313-8.53125-8.535156 0-4.710938 3.820313-8.53125 8.53125-8.53125 4.714844 0 8.535157 3.820312 8.535157 8.53125 0 4.714843-3.820313 8.535156-8.535157 8.535156zm0 0"/><path d="m154.027344 102.25c-42.417969 0-76.800782 34.386719-76.800782 76.800781 0 42.414063 34.382813 76.800781 76.800782 76.800781 42.414062 0 76.796875-34.386718 76.796875-76.800781-.046875-42.394531-34.402344-76.753906-76.796875-76.800781zm0 136.535156c-32.992188 0-59.734375-26.746094-59.734375-59.734375s26.742187-59.734375 59.734375-59.734375c32.988281 0 59.730468 26.746094 59.730468 59.734375-.042968 32.972657-26.761718 59.691407-59.730468 59.734375zm0 0"/><path d="m136.957031 136.382812c-14.136719 0-25.597656 11.464844-25.597656 25.601563s11.460937 25.601563 25.597656 25.601563c14.140625 0 25.601563-11.464844 25.601563-25.601563s-11.460938-25.601563-25.601563-25.601563zm0 34.136719c-4.710937 0-8.53125-3.824219-8.53125-8.535156s3.820313-8.535156 8.53125-8.535156c4.714844 0 8.535157 3.824219 8.535157 8.535156s-3.820313 8.535156-8.535157 8.535156zm0 0"/><path d="m460.601562 205.214844c-8.710937-115.761719-105.191406-205.2343752-221.277343-205.214844-116.089844.0195312-212.535157 89.527344-221.210938 205.289062-.761719 9.433594-2.808593 18.71875-6.082031 27.597657-7.675781 21.03125-11.601562 43.246093-11.605469 65.632812 0 75.175781 44.714844 144.996094 116.90625 183.261719 1.054688 4.398438 2.878907 8.574219 5.394531 12.335938 6.519532 9.515624 16.773438 15.8125 28.210938 17.316406 1.839844.25 3.695312.386718 5.554688.417968 8.085937-.011718 15.984374-2.449218 22.671874-6.996093 19.730469 4.632812 39.929688 6.984375 60.195313 6.996093 131.746094 0 238.933594-95.703124 238.933594-213.332031-.007813-22.453125-3.9375-44.726562-11.605469-65.828125-3.28125-8.835937-5.332031-18.082031-6.085938-27.476562zm-307.53125 289.28125c-6.582031-.871094-12.488281-4.488282-16.257812-9.953125-3.386719-4.871094-4.519531-10.960938-3.105469-16.722657 3.105469-13.933593 8.882813-27.132812 17.015625-38.863281 7.414063-11.851562 20.285156-19.179687 34.261719-19.507812 18.695313 0 32.519531 14.507812 40.011719 25.414062-20.339844.28125-38.125 13.769531-43.886719 33.28125-.820313 2.644531-1.457031 5.34375-1.902344 8.078125-2.019531 10.914063-11.636719 18.765625-22.734375 18.5625-1.136718-.03125-2.273437-.125-3.402344-.28125zm86.289063-110.644532c64.785156 0 100.292969-13.476562 119.371094-26.128906-.144531 15.308594-5.175781 30.167969-14.359375 42.417969-17.503906 22.316406-51.089844 33.921875-99.550782 34.75-7.082031-13.894531-27.050781-42.507813-59.835937-42.507813-15.417969.074219-30.121094 6.519532-40.617187 17.8125-15.523438-13.03125-24.484376-32.261718-24.476563-52.523437 19.089844 12.671875 54.613281 26.179687 119.46875 26.179687zm-118.238281-46.855468c.707031-4.949219 1.648437-9.773438 2.765625-14.3125.699219-2.882813 2.742187-5.257813 5.484375-6.382813 2.5625-1.109375 5.5-.917969 7.894531.511719 16 9.574219 46.703125 20.957031 102.09375 20.957031s86.09375-11.417969 102.09375-20.992187c2.394531-1.425782 5.332031-1.617188 7.890625-.511719 2.730469 1.117187 4.757812 3.46875 5.453125 6.332031 1.101563 4.464844 2.066406 9.3125 2.792969 14.378906-11.257813 10.566407-42.199219 29.808594-118.230469 29.808594s-107.015625-19.269531-118.238281-29.789062zm118.238281 157.789062c-15.835937-.007812-31.636719-1.53125-47.179687-4.550781 1.863281-3.535156 3.171874-7.335937 3.871093-11.269531.339844-2.050782.816407-4.074219 1.433594-6.058594 3.46875-12.382812 14.742187-20.945312 27.597656-20.96875 1.707031.078125 12.484375.179688 14.277344.179688 57.019531 0 96.871094-13.941407 118.441406-41.4375 22.777344-29.011719 19.960938-66.117188 13.585938-92.109376-2.019531-8.113281-7.753907-14.796874-15.472657-18.023437-7.554687-3.207031-16.1875-2.609375-23.226562 1.613281-14.15625 8.476563-41.839844 18.542969-93.328125 18.542969-51.492187 0-79.171875-10.101563-93.328125-18.574219-7.039062-4.234375-15.675781-4.832031-23.230469-1.613281-7.726562 3.238281-13.472656 9.933594-15.503906 18.0625-11.035156 45.039063-1.613281 81.921875 26.453125 104.960937-7.492188 11.988282-12.988281 25.113282-16.273438 38.859376-61.96875-36.050782-99.984374-97.789063-99.984374-163.878907.003906-20.402343 3.585937-40.648437 10.582031-59.8125 3.804687-10.34375 6.179687-21.15625 7.054687-32.144531 7.984375-106.878906 97.019532-189.527344 204.195313-189.546875s196.238281 82.59375 204.261719 189.46875c.871093 10.957031 3.246093 21.742187 7.058593 32.050781 6.992188 19.226563 10.574219 39.523438 10.582031 59.984375 0 108.226563-99.523437 196.265625-221.867187 196.265625zm0 0"/></svg>